<?xml version="1.0" encoding="UTF-8" standalone="no"?>
<svg
   xmlns:dc="http://purl.org/dc/elements/1.1/"
   xmlns:cc="http://creativecommons.org/ns#"
   xmlns:rdf="http://www.w3.org/1999/02/22-rdf-syntax-ns#"
   xmlns:svg="http://www.w3.org/2000/svg"
   xmlns="http://www.w3.org/2000/svg"
   xmlns:sodipodi="http://sodipodi.sourceforge.net/DTD/sodipodi-0.dtd"
   xmlns:inkscape="http://www.inkscape.org/namespaces/inkscape"
   sodipodi:docname="bottom_left_decoration.svg"
   inkscape:version="1.0 (4035a4fb49, 2020-05-01)"
   id="svg1613"
   version="1.1"
   viewBox="0 0 210 80"
   height="80mm"
   width="210mm">
  <defs
     id="defs1607" />
  <sodipodi:namedview
     inkscape:pagecheckerboard="true"
     inkscape:window-maximized="1"
     inkscape:window-y="-11"
     inkscape:window-x="-11"
     inkscape:window-height="2126"
     inkscape:window-width="3840"
     showgrid="false"
     inkscape:document-rotation="0"
     inkscape:current-layer="layer1"
     inkscape:document-units="mm"
     inkscape:cy="480.79208"
     inkscape:cx="400"
     inkscape:zoom="1.01"
     inkscape:pageshadow="2"
     inkscape:pageopacity="0"
     borderopacity="1.0"
     bordercolor="#666666"
     pagecolor="#ffffff"
     id="base" />
  <metadata
     id="metadata1610">
    <rdf:RDF>
      <cc:Work
         rdf:about="">
        <dc:format>image/svg+xml</dc:format>
        <dc:type
           rdf:resource="http://purl.org/dc/dcmitype/StillImage" />
        <dc:title></dc:title>
      </cc:Work>
    </rdf:RDF>
  </metadata>
  <g
     id="layer1"
     inkscape:groupmode="layer"
     inkscape:label="Ebene 1">
    <path
       style="fill:#e3e2db;fill-rule:evenodd;stroke:#e3e2db;stroke-width:0.126071"
       d="m 154.92028,0.64913975 c -4.9954,1.15650905 -7.56068,5.21451905 -7.49132,11.85049825 0.0417,3.990471 0.88683,10.386439 1.52807,11.564422 0.62593,1.14985 1.63751,1.848573 6.38191,4.408179 2.19846,1.186072 6.20343,3.493847 8.89996,5.128416 2.69651,1.634557 4.98092,2.971921 5.07644,2.971921 0.0957,0 -1.94594,-2.502155 -4.53657,-5.560332 -7.27787,-8.591288 -9.00217,-11.94522 -9.04672,-17.596778 -0.021,-2.665787 0.0879,-3.364151 0.72157,-4.6246912 0.91818,-1.826555 2.90258,-3.488509 4.61003,-3.860964 2.95982,-0.645635 6.82496,-0.0538 10.1599,1.555546 6.00592,2.898406 17.98091,11.5982212 22.47467,16.3278332 7.08769,7.459705 10.44347,15.125498 8.77612,20.047807 -1.3572,4.006718 -5.65137,7.366417 -11.62047,9.091715 -2.74417,0.793164 -8.66028,1.034747 -15.36241,0.627316 -5.37854,-0.32696 -10.54395,-1.451386 -15.97943,-3.478458 -6.19143,-2.308999 -11.048,-5.134721 -26.49076,-15.413169 -4.21371,-2.804584 -8.93539,-5.878412 -10.49263,-6.830727 -6.47471,-3.959563 -15.26062,-7.898884 -20.94799,-9.392403 -2.921926,-0.767314 -3.384526,-0.815532 -7.048636,-0.734706 -3.81289,0.08418 -3.95687,0.108919 -5.20032,0.896031 -3.05303,1.93258 -4.53238,4.333577 -5.16615,8.384685 -0.49292,3.150736 -0.11267,6.616302 1.72006,15.676705 1.73768,8.590436 2.13982,12.34536 1.89022,17.649206 -0.31246,6.639349 -1.29628,8.991263 -4.83888,11.567678 -2.56102,1.862554 -4.15936,2.300423 -8.39718,2.300423 -7.67738,0 -16.30633,-2.27881 -32.31592,-8.53427 -7.87735,-3.077934 -12.66269,-5.415226 -17.12683,-8.365177 -3.32724,-2.198683 -7.94437,-4.594284 -12.49123,-6.481077 C 8.7809439,48.237605 1.8524639,45.837835 0.37804393,45.589557 c -0.85173,-0.14343 -0.78667,-0.04931 0.77570997,1.121688 4.06811,3.049164 17.3077101,10.330651 27.3885201,15.063082 32.16984,15.102095 62.27895,22.015769 69.87899,16.045638 1.739166,-1.366167 2.118586,-2.432838 2.120946,-5.962397 0.004,-4.787961 -1.277766,-9.507385 -6.984836,-25.734322 -4.07978,-11.600041 -4.17215,-11.953545 -4.17215,-15.968587 0,-3.128099 0.0693,-3.515959 0.84177,-4.709924 1.50601,-2.327873 4.96015,-3.058549 9.830706,-2.079542 3.01158,0.605335 9.45616,3.207019 14.47655,5.84419 5.46622,2.871344 9.38049,5.257659 19.90049,12.132186 9.26492,6.054378 12.37579,7.858111 17.15576,9.9472 8.72732,3.814297 17.95212,5.421603 31.15903,5.429098 11.55159,0.0066 18.56499,-1.425671 22.34152,-4.562424 1.84873,-1.53554 2.70775,-2.728726 3.5949,-4.993426 0.9629,-2.458037 0.85464,-10.347109 -0.18834,-13.729393 -1.60036,-5.189566 -4.88564,-10.654259 -8.6454,-14.380656 -3.43502,-3.40457 -9.57824,-7.867566 -13.97514,-10.1528752 -7.4727,-3.88395 -16.71789,-7.198703 -22.8768,-8.20221705 -3.57357,-0.582284 -5.71642,-0.59494 -8.07995,-0.04772 z"
       id="path851-1" />
  </g>
</svg>
