<?xml version="1.0" encoding="UTF-8" standalone="no"?>
<svg
   xmlns:dc="http://purl.org/dc/elements/1.1/"
   xmlns:cc="http://creativecommons.org/ns#"
   xmlns:rdf="http://www.w3.org/1999/02/22-rdf-syntax-ns#"
   xmlns:svg="http://www.w3.org/2000/svg"
   xmlns="http://www.w3.org/2000/svg"
   xmlns:sodipodi="http://sodipodi.sourceforge.net/DTD/sodipodi-0.dtd"
   xmlns:inkscape="http://www.inkscape.org/namespaces/inkscape"
   sodipodi:docname="top_left_decoration.svg"
   inkscape:version="1.0 (4035a4fb49, 2020-05-01)"
   id="svg1613"
   version="1.1"
   viewBox="0 0 210 80"
   height="80mm"
   width="210mm">
  <defs
     id="defs1607" />
  <sodipodi:namedview
     inkscape:pagecheckerboard="true"
     inkscape:window-maximized="1"
     inkscape:window-y="-11"
     inkscape:window-x="-11"
     inkscape:window-height="2126"
     inkscape:window-width="3840"
     showgrid="false"
     inkscape:document-rotation="0"
     inkscape:current-layer="layer1"
     inkscape:document-units="mm"
     inkscape:cy="480.79208"
     inkscape:cx="400"
     inkscape:zoom="1.01"
     inkscape:pageshadow="2"
     inkscape:pageopacity="0"
     borderopacity="1.0"
     bordercolor="#666666"
     pagecolor="#ffffff"
     id="base" />
  <metadata
     id="metadata1610">
    <rdf:RDF>
      <cc:Work
         rdf:about="">
        <dc:format>image/svg+xml</dc:format>
        <dc:type
           rdf:resource="http://purl.org/dc/dcmitype/StillImage" />
        <dc:title></dc:title>
      </cc:Work>
    </rdf:RDF>
  </metadata>
  <g
     id="layer1"
     inkscape:groupmode="layer"
     inkscape:label="Ebene 1">
    <path
       style="fill:#e3e2db;fill-rule:evenodd;stroke:#e3e2db;stroke-width:0.126071"
       d="m 154.92028,79.557536 c -4.9954,-1.156509 -7.56068,-5.214519 -7.49132,-11.850498 0.0417,-3.990471 0.88683,-10.386439 1.52807,-11.564422 0.62593,-1.14985 1.63751,-1.848573 6.38191,-4.408179 2.19846,-1.186072 6.20343,-3.493847 8.89996,-5.128416 2.69651,-1.634557 4.98092,-2.971921 5.07644,-2.971921 0.0957,0 -1.94594,2.502155 -4.53657,5.560332 -7.27787,8.591288 -9.00217,11.94522 -9.04672,17.596778 -0.021,2.665787 0.0879,3.364151 0.72157,4.624691 0.91818,1.826555 2.90258,3.488509 4.61003,3.860964 2.95982,0.645635 6.82496,0.0538 10.1599,-1.555546 6.00592,-2.898406 17.98091,-11.598221 22.47467,-16.327833 7.08769,-7.459705 10.44347,-15.125498 8.77612,-20.047807 -1.3572,-4.006718 -5.65137,-7.366417 -11.62047,-9.091715 -2.74417,-0.793164 -8.66028,-1.034747 -15.36241,-0.627316 -5.37854,0.32696 -10.54395,1.451386 -15.97943,3.478458 -6.19143,2.308999 -11.048,5.134721 -26.49076,15.413169 -4.21371,2.804584 -8.93539,5.878412 -10.49263,6.830727 -6.47471,3.959563 -15.26062,7.898884 -20.94799,9.392403 -2.921924,0.767314 -3.384529,0.815532 -7.048636,0.734706 C 90.719118,63.391932 90.575137,63.367192 89.331688,62.58008 86.278663,60.6475 84.799316,58.246503 84.165545,54.195395 83.672624,51.044659 84.052869,47.579093 85.885603,38.51869 87.623278,29.928254 88.025421,26.17333 87.775819,20.869484 87.463364,14.230135 86.479537,11.878221 82.936941,9.3018053 80.375924,7.4392513 78.777585,7.0013825 74.539757,7.0013825 c -7.677379,0 -16.306324,2.2788107 -32.31592,8.5342705 -7.877347,3.077934 -12.662687,5.415226 -17.126826,8.365177 -3.327237,2.198683 -7.94437,4.594284 -12.491232,6.481077 C 8.7809431,31.969071 1.8524573,34.368841 0.37804396,34.617119 -0.47368343,34.760549 -0.40862831,34.666433 1.153747,33.495431 5.2218586,30.446267 18.461461,23.16478 28.542273,18.432349 60.712114,3.3302535 90.821223,-3.5834198 98.421262,2.3867111 c 1.739168,1.366167 2.118588,2.4328377 2.120948,5.9623966 0.004,4.7879613 -1.277764,9.5073853 -6.984843,25.7343223 -4.079775,11.600041 -4.172142,11.953545 -4.172142,15.968587 0,3.128099 0.06933,3.515959 0.841762,4.709924 1.506011,2.327873 4.960156,3.058549 9.830713,2.079542 3.01158,-0.605335 9.45616,-3.207019 14.47655,-5.84419 5.46622,-2.871344 9.38049,-5.257659 19.90049,-12.132186 9.26492,-6.054378 12.37579,-7.858111 17.15576,-9.9472 8.72732,-3.814297 17.95212,-5.421603 31.15903,-5.429098 11.55159,-0.0066 18.56499,1.425671 22.34152,4.562424 1.84873,1.53554 2.70775,2.728726 3.5949,4.993426 0.9629,2.458037 0.85464,10.347109 -0.18834,13.729393 -1.60036,5.189566 -4.88564,10.654259 -8.6454,14.380656 -3.43502,3.40457 -9.57824,7.867566 -13.97514,10.152875 -7.4727,3.88395 -16.71789,7.198703 -22.8768,8.202217 -3.57357,0.582284 -5.71642,0.59494 -8.07995,0.04772 z"
       id="path851-1" />
  </g>
</svg>
